<svg width="12" height="12" viewBox="0 0 12 12" fill="none" xmlns="http://www.w3.org/2000/svg">
<path d="M10.61 4L4.16999 0.306666C3.82151 0.105439 3.42599 2.48611e-05 3.02359 0.00113012C2.62118 0.00223539 2.22624 0.109821 1.87888 0.312959C1.53151 0.516097 1.24409 0.807551 1.04582 1.15772C0.847548 1.50788 0.745482 1.90429 0.749991 2.30667V9.72C0.749991 10.3247 0.990204 10.9046 1.41779 11.3322C1.84537 11.7598 2.4253 12 3.02999 12C3.43028 11.9993 3.82338 11.8936 4.16999 11.6933L10.61 8C10.956 7.79973 11.2433 7.51198 11.443 7.16562C11.6428 6.81927 11.7479 6.42648 11.7479 6.02667C11.7479 5.62685 11.6428 5.23406 11.443 4.88771C11.2433 4.54135 10.956 4.25361 10.61 4.05333V4ZM9.94332 6.79333L3.50332 10.54C3.35898 10.6218 3.1959 10.6648 3.02999 10.6648C2.86408 10.6648 2.701 10.6218 2.55666 10.54C2.41272 10.4569 2.2932 10.3374 2.21011 10.1934C2.12702 10.0495 2.0833 9.8862 2.08332 9.72V2.28C2.0833 2.1138 2.12702 1.95052 2.21011 1.80657C2.2932 1.66263 2.41272 1.5431 2.55666 1.46C2.70159 1.37944 2.86419 1.33593 3.02999 1.33333C3.19568 1.33673 3.35808 1.38019 3.50332 1.46L9.94332 5.18C10.0873 5.26307 10.2069 5.38258 10.29 5.52653C10.3732 5.67047 10.4169 5.83377 10.4169 6C10.4169 6.16623 10.3732 6.32953 10.29 6.47347C10.2069 6.61742 10.0873 6.73693 9.94332 6.82V6.79333Z" fill="black"/>
</svg>
