<svg width="8" height="6" viewBox="0 0 8 6" fill="none" xmlns="http://www.w3.org/2000/svg">
<path d="M7.08334 1.11333C6.95843 0.989166 6.78946 0.919472 6.61334 0.919472C6.43722 0.919472 6.26825 0.989166 6.14334 1.11333L3.75001 3.47333L1.39001 1.11333C1.2651 0.989166 1.09613 0.919472 0.920006 0.919472C0.743883 0.919472 0.574915 0.989166 0.450006 1.11333C0.387521 1.17531 0.337925 1.24904 0.304079 1.33028C0.270233 1.41152 0.252808 1.49866 0.252808 1.58667C0.252808 1.67467 0.270233 1.76181 0.304079 1.84305C0.337925 1.92429 0.387521 1.99802 0.450006 2.06L3.27667 4.88667C3.33865 4.94915 3.41238 4.99875 3.49362 5.03259C3.57486 5.06644 3.662 5.08387 3.75001 5.08387C3.83801 5.08387 3.92515 5.06644 4.00639 5.03259C4.08763 4.99875 4.16136 4.94915 4.22334 4.88667L7.08334 2.06C7.14582 1.99802 7.19542 1.92429 7.22927 1.84305C7.26311 1.76181 7.28054 1.67467 7.28054 1.58667C7.28054 1.49866 7.26311 1.41152 7.22927 1.33028C7.19542 1.24904 7.14582 1.17531 7.08334 1.11333Z" fill="black"/>
</svg>
