<svg width="15" height="14" viewBox="0 0 15 14" fill="none" xmlns="http://www.w3.org/2000/svg">
<path d="M2.83331 11H5.65998C5.74772 11.0005 5.83469 10.9837 5.91592 10.9505C5.99714 10.9173 6.07102 10.8685 6.13331 10.8067L10.7466 6.18667L12.64 4.33333C12.7025 4.27136 12.7521 4.19762 12.7859 4.11638C12.8198 4.03515 12.8372 3.94801 12.8372 3.86C12.8372 3.77199 12.8198 3.68486 12.7859 3.60362C12.7521 3.52238 12.7025 3.44864 12.64 3.38667L9.81331 0.526667C9.75134 0.464181 9.6776 0.414585 9.59636 0.380739C9.51513 0.346893 9.42799 0.329468 9.33998 0.329468C9.25197 0.329468 9.16484 0.346893 9.0836 0.380739C9.00236 0.414585 8.92862 0.464181 8.86665 0.526667L6.98665 2.41333L2.35998 7.03333C2.29819 7.09563 2.24931 7.1695 2.21613 7.25073C2.18296 7.33195 2.16614 7.41893 2.16665 7.50667V10.3333C2.16665 10.5101 2.23688 10.6797 2.36191 10.8047C2.48693 10.9298 2.6565 11 2.83331 11ZM9.33998 1.94L11.2266 3.82667L10.28 4.77333L8.39331 2.88667L9.33998 1.94ZM3.49998 7.78L7.45331 3.82667L9.33998 5.71333L5.38665 9.66667H3.49998V7.78ZM13.5 12.3333H1.49998C1.32317 12.3333 1.1536 12.4036 1.02858 12.5286C0.903551 12.6536 0.833313 12.8232 0.833313 13C0.833313 13.1768 0.903551 13.3464 1.02858 13.4714C1.1536 13.5964 1.32317 13.6667 1.49998 13.6667H13.5C13.6768 13.6667 13.8464 13.5964 13.9714 13.4714C14.0964 13.3464 14.1666 13.1768 14.1666 13C14.1666 12.8232 14.0964 12.6536 13.9714 12.5286C13.8464 12.4036 13.6768 12.3333 13.5 12.3333Z" fill="black"/>
</svg>
