<svg width="14" height="12" viewBox="0 0 14 12" fill="none" xmlns="http://www.w3.org/2000/svg">
<path d="M11.6667 2.33333H10.8133L10.6 1.66666C10.4617 1.27548 10.2052 0.936997 9.86594 0.698102C9.52671 0.459207 9.12158 0.331728 8.70668 0.333328H5.29334C4.87438 0.334112 4.46623 0.46645 4.12652 0.711665C3.78681 0.95688 3.53268 1.30259 3.40001 1.69999L3.18668 2.36666H2.33334C1.80291 2.36666 1.2942 2.57737 0.91913 2.95245C0.544057 3.32752 0.333344 3.83623 0.333344 4.36666V9.69999C0.333344 10.2304 0.544057 10.7391 0.91913 11.1142C1.2942 11.4893 1.80291 11.7 2.33334 11.7H11.6667C12.1971 11.7 12.7058 11.4893 13.0809 11.1142C13.456 10.7391 13.6667 10.2304 13.6667 9.69999V4.36666C13.6711 4.10123 13.6226 3.83757 13.5241 3.59105C13.4256 3.34454 13.279 3.12011 13.0928 2.93085C12.9066 2.74159 12.6847 2.59128 12.4398 2.48869C12.195 2.38611 11.9321 2.33329 11.6667 2.33333ZM12.3333 9.66666C12.3333 9.84347 12.2631 10.013 12.1381 10.1381C12.0131 10.2631 11.8435 10.3333 11.6667 10.3333H2.33334C2.15653 10.3333 1.98696 10.2631 1.86194 10.1381C1.73691 10.013 1.66668 9.84347 1.66668 9.66666V4.33333C1.66668 4.15652 1.73691 3.98695 1.86194 3.86192C1.98696 3.7369 2.15653 3.66666 2.33334 3.66666H3.66668C3.81205 3.67425 3.95592 3.63404 4.0763 3.55219C4.19668 3.47033 4.28696 3.35132 4.33334 3.21333L4.69334 2.11999C4.73807 1.98758 4.82328 1.87257 4.93692 1.79122C5.05057 1.70987 5.18691 1.6663 5.32668 1.66666H8.74001C8.87977 1.6663 9.01611 1.70987 9.12976 1.79122C9.24341 1.87257 9.32862 1.98758 9.37334 2.11999L9.73334 3.21333C9.77612 3.34049 9.85628 3.45179 9.96332 3.53267C10.0704 3.61355 10.1993 3.66025 10.3333 3.66666H11.6667C11.8435 3.66666 12.0131 3.7369 12.1381 3.86192C12.2631 3.98695 12.3333 4.15652 12.3333 4.33333V9.66666ZM7.00001 3.66666C6.47259 3.66666 5.95702 3.82306 5.51849 4.11608C5.07996 4.40909 4.73816 4.82557 4.53633 5.31284C4.3345 5.80011 4.28169 6.33629 4.38458 6.85357C4.48748 7.37085 4.74145 7.84601 5.11439 8.21895C5.48733 8.59189 5.96249 8.84586 6.47977 8.94876C6.99705 9.05165 7.53323 8.99884 8.0205 8.79701C8.50777 8.59517 8.92425 8.25338 9.21726 7.81485C9.51028 7.37632 9.66668 6.86074 9.66668 6.33333C9.66668 5.62608 9.38573 4.94781 8.88563 4.44771C8.38553 3.94761 7.70725 3.66666 7.00001 3.66666ZM7.00001 7.66666C6.7363 7.66666 6.47852 7.58846 6.25925 7.44195C6.03998 7.29545 5.86909 7.08721 5.76817 6.84357C5.66725 6.59994 5.64085 6.33185 5.6923 6.07321C5.74374 5.81457 5.87073 5.57699 6.0572 5.39052C6.24367 5.20405 6.48125 5.07706 6.73989 5.02561C6.99853 4.97417 7.26662 5.00057 7.51025 5.10149C7.75389 5.20241 7.96213 5.3733 8.10864 5.59257C8.25515 5.81183 8.33334 6.06962 8.33334 6.33333C8.33334 6.68695 8.19287 7.02609 7.94282 7.27614C7.69277 7.52619 7.35363 7.66666 7.00001 7.66666Z" fill="#FF0000"/>
</svg>
