<svg width="14" height="14" viewBox="0 0 14 14" fill="none" xmlns="http://www.w3.org/2000/svg">
<path d="M13.6667 6.33331C13.6638 6.29781 13.6638 6.26215 13.6667 6.22665C13.6667 6.03998 13.6133 5.85331 13.58 5.66665C13.4581 5.11432 13.263 4.58072 13 4.07998C12.5509 3.16113 11.8964 2.35792 11.0872 1.73251C10.278 1.1071 9.33572 0.676254 8.33332 0.473313L7.77332 0.386646H7.66666H7.47332H7.41999L6.99999 0.333313C6.77332 0.333313 6.54666 0.333313 6.33332 0.333313H6.22666L5.66666 0.466646C4.38669 0.729108 3.21206 1.36191 2.28875 2.28641C1.36544 3.21091 0.734144 4.38634 0.473324 5.66665C0.439991 5.85331 0.413324 6.03998 0.386658 6.22665C0.389507 6.26215 0.389507 6.29781 0.386658 6.33331C0.386658 6.55331 0.386658 6.77998 0.386658 6.99998C0.386658 7.21998 0.386658 7.45331 0.386658 7.66665C0.389507 7.70215 0.389507 7.73781 0.386658 7.77331C0.386658 7.95998 0.439991 8.14665 0.473324 8.33331C0.5783 8.88307 0.755386 9.41657 0.999991 9.91998C1.44909 10.8388 2.10357 11.642 2.91279 12.2674C3.722 12.8929 4.66427 13.3237 5.66666 13.5266L6.22666 13.6133L6.33332 13.6666H6.55999H6.65332C6.77332 13.6666 6.88666 13.6666 7.00666 13.6666C7.23333 13.6666 7.45999 13.6666 7.67332 13.6333H7.77999L8.33332 13.5333C9.61329 13.2709 10.7879 12.6381 11.7112 11.7136C12.6345 10.7891 13.2658 9.61362 13.5267 8.33331C13.56 8.14665 13.5867 7.95998 13.6133 7.77331C13.6279 7.73624 13.6457 7.70054 13.6667 7.66665C13.6667 7.44665 13.7 7.21998 13.7 6.99998C13.7 6.77998 13.6667 6.54665 13.6667 6.33331ZM7.77332 1.73331L8.10666 1.77998C9.31184 2.03723 10.3907 2.70389 11.16 3.66665H6.61332L7.77332 1.73331ZM5.94666 1.78665L6.21332 1.74665L3.91999 5.66665L2.79999 3.71998C3.57574 2.72553 4.67881 2.03818 5.91332 1.77998L5.94666 1.78665ZM2.05999 8.99998C1.93953 8.70452 1.84582 8.39885 1.77999 8.08665C1.77999 7.93998 1.72666 7.78665 1.71332 7.63331C1.71011 7.60674 1.71011 7.57988 1.71332 7.55331C1.67776 7.19419 1.67776 6.83244 1.71332 6.47331C1.71011 6.44674 1.71011 6.41988 1.71332 6.39331C1.71332 6.23998 1.75332 6.08665 1.77999 5.93998C1.83864 5.642 1.92341 5.34976 2.03332 5.06665L4.33332 8.99998H2.05999ZM6.25999 12.2733L5.92666 12.2266C4.70845 11.9748 3.61659 11.3051 2.83999 10.3333H7.38666L6.25999 12.2733ZM5.84666 8.99998L4.69332 6.99998L5.84666 4.99998H8.15332L9.30666 6.99998L8.15332 8.99998H5.84666ZM8.08666 12.22L7.81999 12.26L10.08 8.33331L11.2 10.28C10.4242 11.2744 9.32118 11.9618 8.08666 12.22ZM12.3067 7.55331C12.3099 7.57988 12.3099 7.60674 12.3067 7.63331C12.3067 7.78665 12.2667 7.93998 12.24 8.08665C12.1799 8.37558 12.0951 8.65883 11.9867 8.93331L9.66666 4.99998H11.9133C12.0338 5.29544 12.1275 5.60111 12.1933 5.91331C12.1933 6.05998 12.2467 6.21331 12.26 6.36665C12.2632 6.39322 12.2632 6.42008 12.26 6.44665C12.2956 6.80577 12.2956 7.16752 12.26 7.52665L12.3067 7.55331Z" fill="black"/>
</svg>
