<svg width="15" height="10" viewBox="0 0 15 10" fill="none" xmlns="http://www.w3.org/2000/svg">
<path d="M10.1667 2.66665C9.70517 2.66665 9.25404 2.80349 8.87033 3.05988C8.48661 3.31627 8.18754 3.68069 8.01094 4.10705C7.83433 4.53341 7.78812 5.00257 7.87816 5.45519C7.96819 5.90781 8.19042 6.32357 8.51674 6.6499C8.84306 6.97622 9.25882 7.19845 9.71144 7.28848C10.1641 7.37851 10.6332 7.3323 11.0596 7.1557C11.4859 6.97909 11.8504 6.68003 12.1068 6.29631C12.3631 5.9126 12.5 5.46147 12.5 4.99998C12.5 4.38114 12.2542 3.78765 11.8166 3.35006C11.379 2.91248 10.7855 2.66665 10.1667 2.66665ZM10.1667 5.99998C9.96887 5.99998 9.77554 5.94133 9.61109 5.83145C9.44664 5.72157 9.31846 5.56539 9.24278 5.38266C9.16709 5.19994 9.14729 4.99887 9.18587 4.80489C9.22446 4.61091 9.3197 4.43273 9.45955 4.29287C9.5994 4.15302 9.77758 4.05778 9.97157 4.01919C10.1655 3.98061 10.3666 4.00041 10.5493 4.0761C10.7321 4.15179 10.8882 4.27996 10.9981 4.44441C11.108 4.60886 11.1667 4.8022 11.1667 4.99998C11.1667 5.2652 11.0613 5.51955 10.8738 5.70709C10.6862 5.89462 10.4319 5.99998 10.1667 5.99998ZM10.1667 0.333313H4.83332C3.59565 0.333313 2.40866 0.824978 1.53349 1.70015C0.658322 2.57532 0.166656 3.7623 0.166656 4.99998C0.166656 6.23766 0.658322 7.42464 1.53349 8.29981C2.40866 9.17498 3.59565 9.66665 4.83332 9.66665H10.1667C11.4043 9.66665 12.5913 9.17498 13.4665 8.29981C14.3417 7.42464 14.8333 6.23766 14.8333 4.99998C14.8333 3.7623 14.3417 2.57532 13.4665 1.70015C12.5913 0.824978 11.4043 0.333313 10.1667 0.333313ZM10.1667 8.33331H4.83332C3.94927 8.33331 3.10142 7.98212 2.4763 7.357C1.85118 6.73188 1.49999 5.88403 1.49999 4.99998C1.49999 4.11592 1.85118 3.26808 2.4763 2.64296C3.10142 2.01784 3.94927 1.66665 4.83332 1.66665H10.1667C11.0507 1.66665 11.8986 2.01784 12.5237 2.64296C13.1488 3.26808 13.5 4.11592 13.5 4.99998C13.5 5.88403 13.1488 6.73188 12.5237 7.357C11.8986 7.98212 11.0507 8.33331 10.1667 8.33331Z" fill="black"/>
</svg>
