<svg width="15" height="14" viewBox="0 0 15 14" fill="none" xmlns="http://www.w3.org/2000/svg">
<path d="M9.5 5.66666H7.5V3.66666C7.5 3.48985 7.42976 3.32028 7.30473 3.19526C7.17971 3.07024 7.01014 3 6.83333 3C6.65652 3 6.48695 3.07024 6.36193 3.19526C6.2369 3.32028 6.16666 3.48985 6.16666 3.66666V5.66666H4.16666C3.98985 5.66666 3.82028 5.7369 3.69526 5.86193C3.57024 5.98695 3.5 6.15652 3.5 6.33333C3.5 6.51014 3.57024 6.67971 3.69526 6.80473C3.82028 6.92976 3.98985 7 4.16666 7H6.16666V9C6.16666 9.17681 6.2369 9.34638 6.36193 9.4714C6.48695 9.59643 6.65652 9.66666 6.83333 9.66666C7.01014 9.66666 7.17971 9.59643 7.30473 9.4714C7.42976 9.34638 7.5 9.17681 7.5 9V7H9.5C9.67681 7 9.84638 6.92976 9.9714 6.80473C10.0964 6.67971 10.1667 6.51014 10.1667 6.33333C10.1667 6.15652 10.0964 5.98695 9.9714 5.86193C9.84638 5.7369 9.67681 5.66666 9.5 5.66666ZM13.9733 12.5267L11.5 10.0733C12.4601 8.87627 12.925 7.35686 12.7992 5.82753C12.6734 4.2982 11.9664 2.87519 10.8237 1.85109C9.68091 0.827001 8.1892 0.279671 6.65528 0.321644C5.12136 0.363618 3.66181 0.991705 2.57676 2.07676C1.49171 3.16181 0.863618 4.62136 0.821644 6.15528C0.779671 7.6892 1.327 9.18091 2.35109 10.3237C3.37519 11.4664 4.7982 12.1734 6.32753 12.2992C7.85686 12.425 9.37627 11.9601 10.5733 11L13.0267 13.4533C13.0886 13.5158 13.1624 13.5654 13.2436 13.5993C13.3249 13.6331 13.412 13.6505 13.5 13.6505C13.588 13.6505 13.6751 13.6331 13.7564 13.5993C13.8376 13.5654 13.9114 13.5158 13.9733 13.4533C14.0935 13.329 14.1607 13.1629 14.1607 12.99C14.1607 12.8171 14.0935 12.651 13.9733 12.5267ZM6.83333 11C5.91035 11 5.0081 10.7263 4.24067 10.2135C3.47324 9.70074 2.8751 8.97191 2.52189 8.11919C2.16868 7.26646 2.07627 6.32815 2.25633 5.42291C2.4364 4.51766 2.88085 3.68614 3.5335 3.0335C4.18614 2.38085 5.01766 1.9364 5.92291 1.75633C6.82815 1.57627 7.76646 1.66868 8.61919 2.02189C9.47191 2.3751 10.2007 2.97324 10.7135 3.74067C11.2263 4.5081 11.5 5.41035 11.5 6.33333C11.5 7.57101 11.0083 8.75799 10.1332 9.63316C9.25799 10.5083 8.07101 11 6.83333 11Z" fill="black"/>
</svg>
